<svg xmlns="http://www.w3.org/2000/svg" viewBox="0 0 400 160" width="400" height="160">
  <defs>
    <linearGradient id="blueGreen" x1="0%" y1="0%" x2="100%" y2="100%">
      <stop offset="0%" stop-color="#0D7AC7"/>
      <stop offset="60%" stop-color="#1A9B5C"/>
      <stop offset="100%" stop-color="#66BB6A"/>
    </linearGradient>
    <linearGradient id="deepBlue" x1="0%" y1="0%" x2="0%" y2="100%">
      <stop offset="0%" stop-color="#1565C0"/>
      <stop offset="100%" stop-color="#0D47A1"/>
    </linearGradient>
  </defs>

  <!-- 背景 -->
  <rect width="400" height="160" fill="#FFFFFF"/>

  <!-- 图标区域 -->
  <g transform="translate(30, 10)">
    <!-- 外层圆形轨道 - 蓝绿渐变弧线（模仿原logo风格） -->
    <circle cx="60" cy="60" r="57" fill="none" stroke="url(#blueGreen)" stroke-width="8"
            stroke-dasharray="280 78" transform="rotate(-35, 60, 60)" stroke-linecap="round"/>

    <!-- 内部深蓝椭圆填充 -->
    <ellipse cx="60" cy="62" rx="40" ry="46" fill="url(#deepBlue)"/>

    <!-- "枢"的概念 - 枢纽中心节点 + 辐射连接 -->
    <circle cx="60" cy="62" r="7" fill="#FFFFFF"/>
    <circle cx="60" cy="62" r="4" fill="#4CAF50"/>

    <!-- 从中心辐射的四条连接线 - 代表"枢纽/中枢" -->
    <line x1="60" y1="53" x2="60" y2="26" stroke="#FFFFFF" stroke-width="3" stroke-linecap="round" opacity="0.85"/>
    <line x1="60" y1="71" x2="60" y2="95" stroke="#FFFFFF" stroke-width="3" stroke-linecap="round" opacity="0.85"/>
    <line x1="51" y1="62" x2="30" y2="62" stroke="#FFFFFF" stroke-width="3" stroke-linecap="round" opacity="0.85"/>
    <line x1="69" y1="62" x2="90" y2="62" stroke="#FFFFFF" stroke-width="3" stroke-linecap="round" opacity="0.85"/>

    <!-- 四个末端小节点 -->
    <circle cx="60" cy="24" r="3.5" fill="#81C784" opacity="0.9"/>
    <circle cx="60" cy="97" r="3.5" fill="#81C784" opacity="0.9"/>
    <circle cx="27" cy="62" r="3.5" fill="#81C784" opacity="0.9"/>
    <circle cx="93" cy="62" r="3.5" fill="#81C784" opacity="0.9"/>
  </g>

  <!-- 文字部分 -->
  <text x="128" y="54" font-family="'PingFang SC','Microsoft YaHei','Noto Sans SC',sans-serif" font-size="36" font-weight="700" fill="#0D47A1" letter-spacing="4">智枢</text>
  <text x="222" y="54" font-family="'SF Pro Display','Helvetica Neue',Arial,sans-serif" font-size="20" font-weight="700" fill="#1A9B5C">AI</text>

  <!-- 品牌标语 -->
  <text x="128" y="76" font-family="'PingFang SC','Microsoft YaHei',sans-serif" font-size="13" font-weight="400" fill="#999999" letter-spacing="1.5">Smart Hub · 智能运营中台</text>
</svg>
